<mxfile host="app.diagrams.net" modified="2024-01-22T15:16:11.563Z" agent="Mozilla/5.0 (Windows NT 10.0; Win64; x64) AppleWebKit/537.36 (KHTML, like Gecko) Chrome/120.0.0.0 Safari/537.36" etag="j2VRfygkT-mHTnl3VGM5" version="22.1.21" type="github">
  <diagram name="Page-1" id="G1ZUmWtzzUOynzNmmast">
    <mxGraphModel dx="989" dy="509" grid="1" gridSize="10" guides="1" tooltips="1" connect="1" arrows="1" fold="1" page="1" pageScale="1" pageWidth="827" pageHeight="1169" math="0" shadow="0">
      <root>
        <mxCell id="0" />
        <mxCell id="1" parent="0" />
        <mxCell id="VBOBKGWKoLUU3mQiesKb-2" value="&lt;h3&gt;Client&lt;/h3&gt;" style="rounded=1;whiteSpace=wrap;html=1;" vertex="1" parent="1">
          <mxGeometry x="130" y="190" width="120" height="30" as="geometry" />
        </mxCell>
        <mxCell id="VBOBKGWKoLUU3mQiesKb-3" value="&lt;h3&gt;Amazon&lt;/h3&gt;" style="rounded=1;whiteSpace=wrap;html=1;" vertex="1" parent="1">
          <mxGeometry x="329" y="190" width="120" height="30" as="geometry" />
        </mxCell>
        <mxCell id="VBOBKGWKoLUU3mQiesKb-4" value="&lt;h3&gt;Server&lt;/h3&gt;" style="rounded=1;whiteSpace=wrap;html=1;" vertex="1" parent="1">
          <mxGeometry x="530" y="190" width="120" height="30" as="geometry" />
        </mxCell>
        <mxCell id="VBOBKGWKoLUU3mQiesKb-5" value="" style="endArrow=none;html=1;rounded=0;entryX=0.5;entryY=1;entryDx=0;entryDy=0;" edge="1" parent="1" target="VBOBKGWKoLUU3mQiesKb-2">
          <mxGeometry width="50" height="50" relative="1" as="geometry">
            <mxPoint x="190" y="560" as="sourcePoint" />
            <mxPoint x="190" y="280" as="targetPoint" />
          </mxGeometry>
        </mxCell>
        <mxCell id="VBOBKGWKoLUU3mQiesKb-6" value="" style="endArrow=none;html=1;rounded=0;entryX=0.5;entryY=1;entryDx=0;entryDy=0;" edge="1" parent="1">
          <mxGeometry width="50" height="50" relative="1" as="geometry">
            <mxPoint x="389" y="560" as="sourcePoint" />
            <mxPoint x="389" y="220" as="targetPoint" />
          </mxGeometry>
        </mxCell>
        <mxCell id="VBOBKGWKoLUU3mQiesKb-7" value="" style="endArrow=none;html=1;rounded=0;entryX=0.5;entryY=1;entryDx=0;entryDy=0;" edge="1" parent="1">
          <mxGeometry width="50" height="50" relative="1" as="geometry">
            <mxPoint x="589.76" y="560" as="sourcePoint" />
            <mxPoint x="589.76" y="220" as="targetPoint" />
          </mxGeometry>
        </mxCell>
        <mxCell id="VBOBKGWKoLUU3mQiesKb-8" value="" style="endArrow=classic;html=1;rounded=0;fillColor=#dae8fc;strokeColor=#6c8ebf;" edge="1" parent="1">
          <mxGeometry width="50" height="50" relative="1" as="geometry">
            <mxPoint x="190" y="270" as="sourcePoint" />
            <mxPoint x="390" y="270" as="targetPoint" />
          </mxGeometry>
        </mxCell>
        <mxCell id="VBOBKGWKoLUU3mQiesKb-16" value="user credentials" style="edgeLabel;html=1;align=center;verticalAlign=middle;resizable=0;points=[];" vertex="1" connectable="0" parent="VBOBKGWKoLUU3mQiesKb-8">
          <mxGeometry x="-0.0447" y="-1" relative="1" as="geometry">
            <mxPoint x="5" as="offset" />
          </mxGeometry>
        </mxCell>
        <mxCell id="VBOBKGWKoLUU3mQiesKb-9" value="" style="endArrow=classic;html=1;rounded=0;fillColor=#dae8fc;strokeColor=#6c8ebf;" edge="1" parent="1">
          <mxGeometry width="50" height="50" relative="1" as="geometry">
            <mxPoint x="390" y="320" as="sourcePoint" />
            <mxPoint x="190" y="320" as="targetPoint" />
          </mxGeometry>
        </mxCell>
        <mxCell id="VBOBKGWKoLUU3mQiesKb-17" value="approval code" style="edgeLabel;html=1;align=center;verticalAlign=middle;resizable=0;points=[];" vertex="1" connectable="0" parent="VBOBKGWKoLUU3mQiesKb-9">
          <mxGeometry x="0.0353" relative="1" as="geometry">
            <mxPoint x="3" as="offset" />
          </mxGeometry>
        </mxCell>
        <mxCell id="VBOBKGWKoLUU3mQiesKb-12" value="" style="endArrow=classic;html=1;rounded=0;fillColor=#dae8fc;strokeColor=#6c8ebf;" edge="1" parent="1">
          <mxGeometry width="50" height="50" relative="1" as="geometry">
            <mxPoint x="190" y="380" as="sourcePoint" />
            <mxPoint x="590" y="380" as="targetPoint" />
          </mxGeometry>
        </mxCell>
        <mxCell id="VBOBKGWKoLUU3mQiesKb-18" value="The approval code is sent to the OST server" style="edgeLabel;html=1;align=center;verticalAlign=middle;resizable=0;points=[];" vertex="1" connectable="0" parent="VBOBKGWKoLUU3mQiesKb-12">
          <mxGeometry x="-0.4875" relative="1" as="geometry">
            <mxPoint x="98" as="offset" />
          </mxGeometry>
        </mxCell>
        <mxCell id="VBOBKGWKoLUU3mQiesKb-13" value="" style="endArrow=classic;html=1;rounded=0;fillColor=#dae8fc;strokeColor=#6c8ebf;" edge="1" parent="1">
          <mxGeometry width="50" height="50" relative="1" as="geometry">
            <mxPoint x="590" y="420" as="sourcePoint" />
            <mxPoint x="389" y="420" as="targetPoint" />
          </mxGeometry>
        </mxCell>
        <mxCell id="VBOBKGWKoLUU3mQiesKb-19" value="code validation against amazon" style="edgeLabel;html=1;align=center;verticalAlign=middle;resizable=0;points=[];" vertex="1" connectable="0" parent="VBOBKGWKoLUU3mQiesKb-13">
          <mxGeometry x="0.0024" y="1" relative="1" as="geometry">
            <mxPoint x="1" y="-1" as="offset" />
          </mxGeometry>
        </mxCell>
        <mxCell id="VBOBKGWKoLUU3mQiesKb-14" value="" style="endArrow=classic;html=1;rounded=0;fillColor=#dae8fc;strokeColor=#6c8ebf;" edge="1" parent="1">
          <mxGeometry width="50" height="50" relative="1" as="geometry">
            <mxPoint x="389" y="460" as="sourcePoint" />
            <mxPoint x="590" y="460" as="targetPoint" />
          </mxGeometry>
        </mxCell>
        <mxCell id="VBOBKGWKoLUU3mQiesKb-20" value="response with user data" style="edgeLabel;html=1;align=center;verticalAlign=middle;resizable=0;points=[];" vertex="1" connectable="0" parent="VBOBKGWKoLUU3mQiesKb-14">
          <mxGeometry x="-0.0549" y="-1" relative="1" as="geometry">
            <mxPoint x="6" y="-1" as="offset" />
          </mxGeometry>
        </mxCell>
        <mxCell id="VBOBKGWKoLUU3mQiesKb-15" value="" style="endArrow=classic;html=1;rounded=0;fillColor=#dae8fc;strokeColor=#6c8ebf;" edge="1" parent="1">
          <mxGeometry width="50" height="50" relative="1" as="geometry">
            <mxPoint x="589" y="519" as="sourcePoint" />
            <mxPoint x="189" y="519" as="targetPoint" />
          </mxGeometry>
        </mxCell>
        <mxCell id="VBOBKGWKoLUU3mQiesKb-28" value="the jwt is sent" style="edgeLabel;html=1;align=center;verticalAlign=middle;resizable=0;points=[];" vertex="1" connectable="0" parent="VBOBKGWKoLUU3mQiesKb-15">
          <mxGeometry x="0.0969" y="-1" relative="1" as="geometry">
            <mxPoint x="19" as="offset" />
          </mxGeometry>
        </mxCell>
        <mxCell id="VBOBKGWKoLUU3mQiesKb-23" value="&lt;h3&gt;DB&lt;/h3&gt;" style="rounded=1;whiteSpace=wrap;html=1;" vertex="1" parent="1">
          <mxGeometry x="730" y="190" width="120" height="30" as="geometry" />
        </mxCell>
        <mxCell id="VBOBKGWKoLUU3mQiesKb-24" value="" style="endArrow=none;html=1;rounded=0;entryX=0.5;entryY=1;entryDx=0;entryDy=0;" edge="1" parent="1">
          <mxGeometry width="50" height="50" relative="1" as="geometry">
            <mxPoint x="789.66" y="560" as="sourcePoint" />
            <mxPoint x="789.66" y="220" as="targetPoint" />
          </mxGeometry>
        </mxCell>
        <mxCell id="VBOBKGWKoLUU3mQiesKb-25" value="" style="endArrow=classic;html=1;rounded=0;fillColor=#dae8fc;strokeColor=#6c8ebf;" edge="1" parent="1">
          <mxGeometry width="50" height="50" relative="1" as="geometry">
            <mxPoint x="790" y="490" as="sourcePoint" />
            <mxPoint x="590" y="490" as="targetPoint" />
          </mxGeometry>
        </mxCell>
        <mxCell id="VBOBKGWKoLUU3mQiesKb-26" value="response if the user exists" style="edgeLabel;html=1;align=center;verticalAlign=middle;resizable=0;points=[];" vertex="1" connectable="0" parent="VBOBKGWKoLUU3mQiesKb-25">
          <mxGeometry x="-0.0549" y="-1" relative="1" as="geometry">
            <mxPoint x="-6" y="1" as="offset" />
          </mxGeometry>
        </mxCell>
      </root>
    </mxGraphModel>
  </diagram>
</mxfile>
